<mxfile host="app.diagrams.net" agent="Mozilla/5.0 (Windows NT 10.0; Win64; x64) AppleWebKit/537.36 (KHTML, like Gecko) Chrome/136.0.0.0 Safari/537.36 Edg/136.0.0.0" version="27.0.6">
  <diagram id="oHNV7Hx9UfTEaVYhuPRt" name="Page-1">
    <mxGraphModel dx="2297" dy="1907" grid="1" gridSize="10" guides="1" tooltips="1" connect="1" arrows="1" fold="1" page="1" pageScale="1" pageWidth="850" pageHeight="1100" math="0" shadow="0">
      <root>
        <mxCell id="0" />
        <mxCell id="1" parent="0" />
        <mxCell id="2uzGwe45xqLhciJeLfCy-1" value="AIRPORT&amp;nbsp;" style="whiteSpace=wrap;html=1;" vertex="1" parent="1">
          <mxGeometry x="380" y="110" width="120" height="70" as="geometry" />
        </mxCell>
        <mxCell id="2uzGwe45xqLhciJeLfCy-2" value="      LEG INSTANCE" style="whiteSpace=wrap;html=1;" vertex="1" parent="1">
          <mxGeometry x="40" y="550" width="120" height="70" as="geometry" />
        </mxCell>
        <mxCell id="2uzGwe45xqLhciJeLfCy-3" value="      AIRPLANE" style="whiteSpace=wrap;html=1;" vertex="1" parent="1">
          <mxGeometry x="720" y="460" width="120" height="70" as="geometry" />
        </mxCell>
        <mxCell id="2uzGwe45xqLhciJeLfCy-4" value="        FLIGHT LEG" style="whiteSpace=wrap;html=1;" vertex="1" parent="1">
          <mxGeometry x="70" y="290" width="120" height="70" as="geometry" />
        </mxCell>
        <mxCell id="2uzGwe45xqLhciJeLfCy-5" value="SEAT / RESERVATION " style="whiteSpace=wrap;html=1;" vertex="1" parent="1">
          <mxGeometry x="680" y="720" width="120" height="70" as="geometry" />
        </mxCell>
        <mxCell id="2uzGwe45xqLhciJeLfCy-6" value="        AIRPLANE TYPE" style="whiteSpace=wrap;html=1;" vertex="1" parent="1">
          <mxGeometry x="660" y="230" width="120" height="70" as="geometry" />
        </mxCell>
        <mxCell id="2uzGwe45xqLhciJeLfCy-7" value="      FLIGHT&amp;nbsp;" style="whiteSpace=wrap;html=1;" vertex="1" parent="1">
          <mxGeometry x="320" y="770" width="120" height="70" as="geometry" />
        </mxCell>
        <mxCell id="2uzGwe45xqLhciJeLfCy-13" style="edgeStyle=orthogonalEdgeStyle;rounded=0;orthogonalLoop=1;jettySize=auto;html=1;entryX=0.25;entryY=0;entryDx=0;entryDy=0;" edge="1" parent="1" source="2uzGwe45xqLhciJeLfCy-9" target="2uzGwe45xqLhciJeLfCy-1">
          <mxGeometry relative="1" as="geometry" />
        </mxCell>
        <mxCell id="2uzGwe45xqLhciJeLfCy-9" value="&lt;u&gt;&lt;b&gt;airport_code&lt;/b&gt;&lt;/u&gt;" style="ellipse;whiteSpace=wrap;html=1;" vertex="1" parent="1">
          <mxGeometry x="230" y="50" width="100" height="60" as="geometry" />
        </mxCell>
        <mxCell id="2uzGwe45xqLhciJeLfCy-10" value="&amp;nbsp;city" style="ellipse;whiteSpace=wrap;html=1;" vertex="1" parent="1">
          <mxGeometry x="320" y="-40" width="100" height="60" as="geometry" />
        </mxCell>
        <mxCell id="2uzGwe45xqLhciJeLfCy-15" style="edgeStyle=orthogonalEdgeStyle;rounded=0;orthogonalLoop=1;jettySize=auto;html=1;entryX=0.5;entryY=0;entryDx=0;entryDy=0;" edge="1" parent="1" source="2uzGwe45xqLhciJeLfCy-11" target="2uzGwe45xqLhciJeLfCy-1">
          <mxGeometry relative="1" as="geometry" />
        </mxCell>
        <mxCell id="2uzGwe45xqLhciJeLfCy-11" value="state" style="ellipse;whiteSpace=wrap;html=1;" vertex="1" parent="1">
          <mxGeometry x="460" y="-30" width="100" height="60" as="geometry" />
        </mxCell>
        <mxCell id="2uzGwe45xqLhciJeLfCy-12" value="name" style="ellipse;whiteSpace=wrap;html=1;" vertex="1" parent="1">
          <mxGeometry x="530" y="50" width="100" height="60" as="geometry" />
        </mxCell>
        <mxCell id="2uzGwe45xqLhciJeLfCy-14" style="edgeStyle=orthogonalEdgeStyle;rounded=0;orthogonalLoop=1;jettySize=auto;html=1;entryX=0.373;entryY=0.033;entryDx=0;entryDy=0;entryPerimeter=0;" edge="1" parent="1" source="2uzGwe45xqLhciJeLfCy-10" target="2uzGwe45xqLhciJeLfCy-1">
          <mxGeometry relative="1" as="geometry" />
        </mxCell>
        <mxCell id="2uzGwe45xqLhciJeLfCy-16" style="edgeStyle=orthogonalEdgeStyle;rounded=0;orthogonalLoop=1;jettySize=auto;html=1;exitX=0;exitY=0.5;exitDx=0;exitDy=0;entryX=0.661;entryY=-0.045;entryDx=0;entryDy=0;entryPerimeter=0;" edge="1" parent="1" source="2uzGwe45xqLhciJeLfCy-12" target="2uzGwe45xqLhciJeLfCy-1">
          <mxGeometry relative="1" as="geometry">
            <Array as="points">
              <mxPoint x="459" y="80" />
            </Array>
          </mxGeometry>
        </mxCell>
        <mxCell id="2uzGwe45xqLhciJeLfCy-25" style="edgeStyle=orthogonalEdgeStyle;rounded=0;orthogonalLoop=1;jettySize=auto;html=1;" edge="1" parent="1" source="2uzGwe45xqLhciJeLfCy-17" target="2uzGwe45xqLhciJeLfCy-4">
          <mxGeometry relative="1" as="geometry" />
        </mxCell>
        <mxCell id="2uzGwe45xqLhciJeLfCy-17" value="&lt;b&gt;&lt;u&gt;leg_no&lt;/u&gt;&lt;/b&gt;" style="ellipse;whiteSpace=wrap;html=1;" vertex="1" parent="1">
          <mxGeometry x="20" y="190" width="100" height="60" as="geometry" />
        </mxCell>
        <mxCell id="2uzGwe45xqLhciJeLfCy-27" style="edgeStyle=orthogonalEdgeStyle;rounded=0;orthogonalLoop=1;jettySize=auto;html=1;entryX=0;entryY=0.5;entryDx=0;entryDy=0;" edge="1" parent="1" source="2uzGwe45xqLhciJeLfCy-18" target="2uzGwe45xqLhciJeLfCy-4">
          <mxGeometry relative="1" as="geometry" />
        </mxCell>
        <mxCell id="2uzGwe45xqLhciJeLfCy-18" value="&amp;nbsp;scheduled_arr_time" style="ellipse;whiteSpace=wrap;html=1;" vertex="1" parent="1">
          <mxGeometry x="-80" y="340" width="110" height="60" as="geometry" />
        </mxCell>
        <mxCell id="2uzGwe45xqLhciJeLfCy-19" value="&amp;nbsp;scheduled_dep_time&amp;nbsp;" style="ellipse;whiteSpace=wrap;html=1;" vertex="1" parent="1">
          <mxGeometry x="-90" y="260" width="120" height="60" as="geometry" />
        </mxCell>
        <mxCell id="2uzGwe45xqLhciJeLfCy-28" style="edgeStyle=orthogonalEdgeStyle;rounded=0;orthogonalLoop=1;jettySize=auto;html=1;entryX=0;entryY=0.25;entryDx=0;entryDy=0;" edge="1" parent="1" source="2uzGwe45xqLhciJeLfCy-21" target="2uzGwe45xqLhciJeLfCy-2">
          <mxGeometry relative="1" as="geometry" />
        </mxCell>
        <mxCell id="2uzGwe45xqLhciJeLfCy-21" value="&lt;b&gt;&lt;u&gt;Date&lt;/u&gt;&lt;/b&gt;" style="ellipse;whiteSpace=wrap;html=1;" vertex="1" parent="1">
          <mxGeometry x="-60" y="480" width="100" height="60" as="geometry" />
        </mxCell>
        <mxCell id="2uzGwe45xqLhciJeLfCy-22" value="available_seats" style="ellipse;whiteSpace=wrap;html=1;" vertex="1" parent="1">
          <mxGeometry x="10" y="690" width="100" height="60" as="geometry" />
        </mxCell>
        <mxCell id="2uzGwe45xqLhciJeLfCy-30" style="edgeStyle=orthogonalEdgeStyle;rounded=0;orthogonalLoop=1;jettySize=auto;html=1;entryX=0;entryY=0.75;entryDx=0;entryDy=0;" edge="1" parent="1" source="2uzGwe45xqLhciJeLfCy-23" target="2uzGwe45xqLhciJeLfCy-2">
          <mxGeometry relative="1" as="geometry" />
        </mxCell>
        <mxCell id="2uzGwe45xqLhciJeLfCy-23" value="departure_time" style="ellipse;whiteSpace=wrap;html=1;" vertex="1" parent="1">
          <mxGeometry x="-110" y="640" width="100" height="60" as="geometry" />
        </mxCell>
        <mxCell id="2uzGwe45xqLhciJeLfCy-29" style="edgeStyle=orthogonalEdgeStyle;rounded=0;orthogonalLoop=1;jettySize=auto;html=1;entryX=0;entryY=0.5;entryDx=0;entryDy=0;" edge="1" parent="1" source="2uzGwe45xqLhciJeLfCy-24" target="2uzGwe45xqLhciJeLfCy-2">
          <mxGeometry relative="1" as="geometry" />
        </mxCell>
        <mxCell id="2uzGwe45xqLhciJeLfCy-24" value="arrival_time" style="ellipse;whiteSpace=wrap;html=1;" vertex="1" parent="1">
          <mxGeometry x="-170" y="550" width="100" height="60" as="geometry" />
        </mxCell>
        <mxCell id="2uzGwe45xqLhciJeLfCy-26" style="edgeStyle=orthogonalEdgeStyle;rounded=0;orthogonalLoop=1;jettySize=auto;html=1;exitX=1;exitY=0.5;exitDx=0;exitDy=0;entryX=0.032;entryY=0.409;entryDx=0;entryDy=0;entryPerimeter=0;" edge="1" parent="1" source="2uzGwe45xqLhciJeLfCy-19" target="2uzGwe45xqLhciJeLfCy-4">
          <mxGeometry relative="1" as="geometry" />
        </mxCell>
        <mxCell id="2uzGwe45xqLhciJeLfCy-31" style="edgeStyle=orthogonalEdgeStyle;rounded=0;orthogonalLoop=1;jettySize=auto;html=1;entryX=0.183;entryY=1.02;entryDx=0;entryDy=0;entryPerimeter=0;" edge="1" parent="1" source="2uzGwe45xqLhciJeLfCy-22" target="2uzGwe45xqLhciJeLfCy-2">
          <mxGeometry relative="1" as="geometry">
            <Array as="points">
              <mxPoint x="40" y="655" />
              <mxPoint x="62" y="655" />
            </Array>
          </mxGeometry>
        </mxCell>
        <mxCell id="2uzGwe45xqLhciJeLfCy-35" style="edgeStyle=orthogonalEdgeStyle;rounded=0;orthogonalLoop=1;jettySize=auto;html=1;entryX=0.5;entryY=0;entryDx=0;entryDy=0;" edge="1" parent="1" source="2uzGwe45xqLhciJeLfCy-32" target="2uzGwe45xqLhciJeLfCy-6">
          <mxGeometry relative="1" as="geometry" />
        </mxCell>
        <mxCell id="2uzGwe45xqLhciJeLfCy-32" value="&lt;table&gt;&lt;tbody&gt;&lt;tr&gt;&lt;td data-end=&quot;1726&quot; data-start=&quot;1713&quot; data-col-size=&quot;sm&quot;&gt;&lt;/td&gt;&lt;/tr&gt;&lt;/tbody&gt;&lt;/table&gt;&lt;table&gt;&lt;tbody&gt;&lt;tr&gt;&lt;td data-end=&quot;1806&quot; data-start=&quot;1726&quot; data-col-size=&quot;md&quot;&gt;&lt;b&gt;&lt;u&gt;type_name&lt;/u&gt;&lt;/b&gt;&amp;nbsp;&lt;/td&gt;&lt;/tr&gt;&lt;/tbody&gt;&lt;/table&gt;" style="ellipse;whiteSpace=wrap;html=1;" vertex="1" parent="1">
          <mxGeometry x="730" y="130" width="100" height="60" as="geometry" />
        </mxCell>
        <mxCell id="2uzGwe45xqLhciJeLfCy-36" style="edgeStyle=orthogonalEdgeStyle;rounded=0;orthogonalLoop=1;jettySize=auto;html=1;entryX=1;entryY=0.25;entryDx=0;entryDy=0;" edge="1" parent="1" source="2uzGwe45xqLhciJeLfCy-33" target="2uzGwe45xqLhciJeLfCy-6">
          <mxGeometry relative="1" as="geometry" />
        </mxCell>
        <mxCell id="2uzGwe45xqLhciJeLfCy-33" value="company&amp;nbsp;" style="ellipse;whiteSpace=wrap;html=1;" vertex="1" parent="1">
          <mxGeometry x="840" y="200" width="100" height="60" as="geometry" />
        </mxCell>
        <mxCell id="2uzGwe45xqLhciJeLfCy-37" style="edgeStyle=orthogonalEdgeStyle;rounded=0;orthogonalLoop=1;jettySize=auto;html=1;" edge="1" parent="1" source="2uzGwe45xqLhciJeLfCy-34" target="2uzGwe45xqLhciJeLfCy-6">
          <mxGeometry relative="1" as="geometry" />
        </mxCell>
        <mxCell id="2uzGwe45xqLhciJeLfCy-34" value="max_seats" style="ellipse;whiteSpace=wrap;html=1;" vertex="1" parent="1">
          <mxGeometry x="820" y="300" width="100" height="60" as="geometry" />
        </mxCell>
        <mxCell id="2uzGwe45xqLhciJeLfCy-38" value="&lt;b&gt;&lt;u&gt;airplane_id&lt;/u&gt;&lt;/b&gt;&amp;nbsp;" style="ellipse;whiteSpace=wrap;html=1;" vertex="1" parent="1">
          <mxGeometry x="900" y="440" width="100" height="60" as="geometry" />
        </mxCell>
        <mxCell id="2uzGwe45xqLhciJeLfCy-41" style="edgeStyle=orthogonalEdgeStyle;rounded=0;orthogonalLoop=1;jettySize=auto;html=1;entryX=1;entryY=0.75;entryDx=0;entryDy=0;" edge="1" parent="1" source="2uzGwe45xqLhciJeLfCy-39" target="2uzGwe45xqLhciJeLfCy-3">
          <mxGeometry relative="1" as="geometry" />
        </mxCell>
        <mxCell id="2uzGwe45xqLhciJeLfCy-39" value="total_seats" style="ellipse;whiteSpace=wrap;html=1;" vertex="1" parent="1">
          <mxGeometry x="900" y="520" width="100" height="60" as="geometry" />
        </mxCell>
        <mxCell id="2uzGwe45xqLhciJeLfCy-40" style="edgeStyle=orthogonalEdgeStyle;rounded=0;orthogonalLoop=1;jettySize=auto;html=1;entryX=1.024;entryY=0.617;entryDx=0;entryDy=0;entryPerimeter=0;" edge="1" parent="1" source="2uzGwe45xqLhciJeLfCy-38" target="2uzGwe45xqLhciJeLfCy-3">
          <mxGeometry relative="1" as="geometry" />
        </mxCell>
        <mxCell id="2uzGwe45xqLhciJeLfCy-42" value="&lt;table&gt;&lt;tbody&gt;&lt;tr&gt;&lt;td data-end=&quot;2216&quot; data-start=&quot;2203&quot; data-col-size=&quot;sm&quot;&gt;&lt;/td&gt;&lt;/tr&gt;&lt;/tbody&gt;&lt;/table&gt;&lt;table&gt;&lt;tbody&gt;&lt;tr&gt;&lt;td data-end=&quot;2296&quot; data-start=&quot;2216&quot; data-col-size=&quot;md&quot;&gt;&lt;b&gt;&lt;u&gt;reservation_id&lt;/u&gt;&lt;/b&gt;&amp;nbsp;&lt;/td&gt;&lt;/tr&gt;&lt;/tbody&gt;&lt;/table&gt;" style="ellipse;whiteSpace=wrap;html=1;" vertex="1" parent="1">
          <mxGeometry x="850" y="650" width="100" height="60" as="geometry" />
        </mxCell>
        <mxCell id="2uzGwe45xqLhciJeLfCy-43" value="&lt;table&gt;&lt;tbody&gt;&lt;tr&gt;&lt;td data-end=&quot;2216&quot; data-start=&quot;2203&quot; data-col-size=&quot;sm&quot;&gt;&lt;/td&gt;&lt;/tr&gt;&lt;/tbody&gt;&lt;/table&gt;&lt;table&gt;&lt;tbody&gt;&lt;tr&gt;&lt;td data-end=&quot;2296&quot; data-start=&quot;2216&quot; data-col-size=&quot;md&quot;&gt;&amp;nbsp;customer_name&lt;/td&gt;&lt;/tr&gt;&lt;/tbody&gt;&lt;/table&gt;" style="ellipse;whiteSpace=wrap;html=1;" vertex="1" parent="1">
          <mxGeometry x="920" y="740" width="100" height="60" as="geometry" />
        </mxCell>
        <mxCell id="2uzGwe45xqLhciJeLfCy-51" style="edgeStyle=orthogonalEdgeStyle;rounded=0;orthogonalLoop=1;jettySize=auto;html=1;entryX=1;entryY=0.75;entryDx=0;entryDy=0;" edge="1" parent="1" source="2uzGwe45xqLhciJeLfCy-44" target="2uzGwe45xqLhciJeLfCy-5">
          <mxGeometry relative="1" as="geometry" />
        </mxCell>
        <mxCell id="2uzGwe45xqLhciJeLfCy-44" value="&lt;table&gt;&lt;tbody&gt;&lt;tr&gt;&lt;td data-end=&quot;2216&quot; data-start=&quot;2203&quot; data-col-size=&quot;sm&quot;&gt;&lt;/td&gt;&lt;/tr&gt;&lt;/tbody&gt;&lt;/table&gt;&lt;table&gt;&lt;tbody&gt;&lt;tr&gt;&lt;td data-end=&quot;2296&quot; data-start=&quot;2216&quot; data-col-size=&quot;md&quot;&gt;phone&lt;/td&gt;&lt;/tr&gt;&lt;/tbody&gt;&lt;/table&gt;" style="ellipse;whiteSpace=wrap;html=1;" vertex="1" parent="1">
          <mxGeometry x="880" y="830" width="100" height="60" as="geometry" />
        </mxCell>
        <mxCell id="2uzGwe45xqLhciJeLfCy-46" value="seat_no" style="ellipse;whiteSpace=wrap;html=1;" vertex="1" parent="1">
          <mxGeometry x="740" y="850" width="100" height="60" as="geometry" />
        </mxCell>
        <mxCell id="2uzGwe45xqLhciJeLfCy-48" style="edgeStyle=orthogonalEdgeStyle;rounded=0;orthogonalLoop=1;jettySize=auto;html=1;" edge="1" parent="1" source="2uzGwe45xqLhciJeLfCy-42">
          <mxGeometry relative="1" as="geometry">
            <mxPoint x="800" y="750" as="targetPoint" />
            <Array as="points">
              <mxPoint x="900" y="750" />
            </Array>
          </mxGeometry>
        </mxCell>
        <mxCell id="2uzGwe45xqLhciJeLfCy-50" style="edgeStyle=orthogonalEdgeStyle;rounded=0;orthogonalLoop=1;jettySize=auto;html=1;entryX=0.986;entryY=0.643;entryDx=0;entryDy=0;entryPerimeter=0;" edge="1" parent="1" source="2uzGwe45xqLhciJeLfCy-43" target="2uzGwe45xqLhciJeLfCy-5">
          <mxGeometry relative="1" as="geometry" />
        </mxCell>
        <mxCell id="2uzGwe45xqLhciJeLfCy-52" style="edgeStyle=orthogonalEdgeStyle;rounded=0;orthogonalLoop=1;jettySize=auto;html=1;entryX=0.812;entryY=0.994;entryDx=0;entryDy=0;entryPerimeter=0;" edge="1" parent="1" source="2uzGwe45xqLhciJeLfCy-46" target="2uzGwe45xqLhciJeLfCy-5">
          <mxGeometry relative="1" as="geometry" />
        </mxCell>
        <mxCell id="2uzGwe45xqLhciJeLfCy-53" value="&lt;b&gt;&lt;u&gt;flight_no&amp;nbsp;&lt;/u&gt;&lt;/b&gt;" style="ellipse;whiteSpace=wrap;html=1;" vertex="1" parent="1">
          <mxGeometry x="470" y="930" width="100" height="60" as="geometry" />
        </mxCell>
        <mxCell id="2uzGwe45xqLhciJeLfCy-54" value="&amp;nbsp;airline" style="ellipse;whiteSpace=wrap;html=1;" vertex="1" parent="1">
          <mxGeometry x="190" y="880" width="100" height="60" as="geometry" />
        </mxCell>
        <mxCell id="2uzGwe45xqLhciJeLfCy-55" value="weekdays" style="ellipse;whiteSpace=wrap;html=1;" vertex="1" parent="1">
          <mxGeometry x="320" y="940" width="100" height="60" as="geometry" />
        </mxCell>
        <mxCell id="2uzGwe45xqLhciJeLfCy-56" value="restrictions" style="ellipse;whiteSpace=wrap;html=1;" vertex="1" parent="1">
          <mxGeometry x="510" y="840" width="100" height="60" as="geometry" />
        </mxCell>
        <mxCell id="2uzGwe45xqLhciJeLfCy-59" style="edgeStyle=orthogonalEdgeStyle;rounded=0;orthogonalLoop=1;jettySize=auto;html=1;" edge="1" parent="1" source="2uzGwe45xqLhciJeLfCy-53">
          <mxGeometry relative="1" as="geometry">
            <mxPoint x="400" y="840" as="targetPoint" />
            <Array as="points">
              <mxPoint x="400" y="940" />
            </Array>
          </mxGeometry>
        </mxCell>
        <mxCell id="2uzGwe45xqLhciJeLfCy-60" style="edgeStyle=orthogonalEdgeStyle;rounded=0;orthogonalLoop=1;jettySize=auto;html=1;entryX=0.335;entryY=1.007;entryDx=0;entryDy=0;entryPerimeter=0;" edge="1" parent="1" source="2uzGwe45xqLhciJeLfCy-54" target="2uzGwe45xqLhciJeLfCy-7">
          <mxGeometry relative="1" as="geometry" />
        </mxCell>
        <mxCell id="2uzGwe45xqLhciJeLfCy-62" style="edgeStyle=orthogonalEdgeStyle;rounded=0;orthogonalLoop=1;jettySize=auto;html=1;entryX=0.411;entryY=1.007;entryDx=0;entryDy=0;entryPerimeter=0;" edge="1" parent="1" source="2uzGwe45xqLhciJeLfCy-55" target="2uzGwe45xqLhciJeLfCy-7">
          <mxGeometry relative="1" as="geometry" />
        </mxCell>
        <mxCell id="2uzGwe45xqLhciJeLfCy-63" style="edgeStyle=orthogonalEdgeStyle;rounded=0;orthogonalLoop=1;jettySize=auto;html=1;entryX=0.873;entryY=1.033;entryDx=0;entryDy=0;entryPerimeter=0;" edge="1" parent="1" source="2uzGwe45xqLhciJeLfCy-56" target="2uzGwe45xqLhciJeLfCy-7">
          <mxGeometry relative="1" as="geometry" />
        </mxCell>
        <mxCell id="2uzGwe45xqLhciJeLfCy-113" style="edgeStyle=orthogonalEdgeStyle;rounded=0;orthogonalLoop=1;jettySize=auto;html=1;entryX=0.5;entryY=1;entryDx=0;entryDy=0;" edge="1" parent="1" source="2uzGwe45xqLhciJeLfCy-68" target="2uzGwe45xqLhciJeLfCy-112">
          <mxGeometry relative="1" as="geometry" />
        </mxCell>
        <mxCell id="2uzGwe45xqLhciJeLfCy-68" value="Amount" style="ellipse;whiteSpace=wrap;html=1;" vertex="1" parent="1">
          <mxGeometry x="-170" y="980" width="100" height="60" as="geometry" />
        </mxCell>
        <mxCell id="2uzGwe45xqLhciJeLfCy-69" value="Code" style="ellipse;whiteSpace=wrap;html=1;" vertex="1" parent="1">
          <mxGeometry x="-30" y="980" width="100" height="60" as="geometry" />
        </mxCell>
        <mxCell id="2uzGwe45xqLhciJeLfCy-73" style="edgeStyle=orthogonalEdgeStyle;rounded=0;orthogonalLoop=1;jettySize=auto;html=1;entryX=0.5;entryY=1;entryDx=0;entryDy=0;endArrow=classicThin;startFill=0;fillColor=#ffe6cc;strokeColor=#d79b00;endFill=1;" edge="1" parent="1" source="2uzGwe45xqLhciJeLfCy-72" target="2uzGwe45xqLhciJeLfCy-1">
          <mxGeometry relative="1" as="geometry" />
        </mxCell>
        <mxCell id="2uzGwe45xqLhciJeLfCy-110" value="M" style="edgeLabel;html=1;align=center;verticalAlign=middle;resizable=0;points=[];" vertex="1" connectable="0" parent="2uzGwe45xqLhciJeLfCy-73">
          <mxGeometry x="-0.5427" y="-2" relative="1" as="geometry">
            <mxPoint as="offset" />
          </mxGeometry>
        </mxCell>
        <mxCell id="2uzGwe45xqLhciJeLfCy-72" value="Allows" style="shape=rhombus;perimeter=rhombusPerimeter;whiteSpace=wrap;html=1;align=center;fillColor=#ffe6cc;strokeColor=#d79b00;" vertex="1" parent="1">
          <mxGeometry x="510" y="210" width="120" height="60" as="geometry" />
        </mxCell>
        <mxCell id="2uzGwe45xqLhciJeLfCy-74" style="edgeStyle=orthogonalEdgeStyle;rounded=0;orthogonalLoop=1;jettySize=auto;html=1;entryX=0.002;entryY=0.604;entryDx=0;entryDy=0;entryPerimeter=0;endArrow=classic;startFill=0;fillColor=#ffe6cc;strokeColor=#d79b00;endFill=1;" edge="1" parent="1" source="2uzGwe45xqLhciJeLfCy-72" target="2uzGwe45xqLhciJeLfCy-6">
          <mxGeometry relative="1" as="geometry" />
        </mxCell>
        <mxCell id="2uzGwe45xqLhciJeLfCy-111" value="M" style="edgeLabel;html=1;align=center;verticalAlign=middle;resizable=0;points=[];" vertex="1" connectable="0" parent="2uzGwe45xqLhciJeLfCy-74">
          <mxGeometry x="-0.7035" y="3" relative="1" as="geometry">
            <mxPoint as="offset" />
          </mxGeometry>
        </mxCell>
        <mxCell id="2uzGwe45xqLhciJeLfCy-76" style="edgeStyle=orthogonalEdgeStyle;rounded=0;orthogonalLoop=1;jettySize=auto;html=1;entryX=0;entryY=0.75;entryDx=0;entryDy=0;fillColor=#f8cecc;strokeColor=#b85450;" edge="1" parent="1" source="2uzGwe45xqLhciJeLfCy-75" target="2uzGwe45xqLhciJeLfCy-1">
          <mxGeometry relative="1" as="geometry" />
        </mxCell>
        <mxCell id="2uzGwe45xqLhciJeLfCy-79" value="1" style="edgeLabel;html=1;align=center;verticalAlign=middle;resizable=0;points=[];" vertex="1" connectable="0" parent="2uzGwe45xqLhciJeLfCy-76">
          <mxGeometry x="-0.7134" y="-4" relative="1" as="geometry">
            <mxPoint as="offset" />
          </mxGeometry>
        </mxCell>
        <mxCell id="2uzGwe45xqLhciJeLfCy-77" style="edgeStyle=orthogonalEdgeStyle;rounded=0;orthogonalLoop=1;jettySize=auto;html=1;entryX=1;entryY=0.5;entryDx=0;entryDy=0;fillColor=#f8cecc;strokeColor=#b85450;shape=link;" edge="1" parent="1" source="2uzGwe45xqLhciJeLfCy-75" target="2uzGwe45xqLhciJeLfCy-4">
          <mxGeometry relative="1" as="geometry">
            <Array as="points">
              <mxPoint x="210" y="325" />
            </Array>
          </mxGeometry>
        </mxCell>
        <mxCell id="2uzGwe45xqLhciJeLfCy-78" value="M" style="edgeLabel;html=1;align=center;verticalAlign=middle;resizable=0;points=[];" vertex="1" connectable="0" parent="2uzGwe45xqLhciJeLfCy-77">
          <mxGeometry x="-0.3781" y="-4" relative="1" as="geometry">
            <mxPoint as="offset" />
          </mxGeometry>
        </mxCell>
        <mxCell id="2uzGwe45xqLhciJeLfCy-75" value="Departs_From" style="shape=rhombus;perimeter=rhombusPerimeter;whiteSpace=wrap;html=1;align=center;fillColor=#f8cecc;strokeColor=#b85450;" vertex="1" parent="1">
          <mxGeometry x="210" y="210" width="120" height="60" as="geometry" />
        </mxCell>
        <mxCell id="2uzGwe45xqLhciJeLfCy-81" style="edgeStyle=orthogonalEdgeStyle;rounded=0;orthogonalLoop=1;jettySize=auto;html=1;fillColor=#e1d5e7;strokeColor=#9673a6;shape=link;" edge="1" parent="1" source="2uzGwe45xqLhciJeLfCy-80" target="2uzGwe45xqLhciJeLfCy-4">
          <mxGeometry relative="1" as="geometry">
            <Array as="points">
              <mxPoint x="230" y="340" />
              <mxPoint x="230" y="340" />
            </Array>
          </mxGeometry>
        </mxCell>
        <mxCell id="2uzGwe45xqLhciJeLfCy-84" value="M" style="edgeLabel;html=1;align=center;verticalAlign=middle;resizable=0;points=[];" vertex="1" connectable="0" parent="2uzGwe45xqLhciJeLfCy-81">
          <mxGeometry x="-0.4818" y="-3" relative="1" as="geometry">
            <mxPoint as="offset" />
          </mxGeometry>
        </mxCell>
        <mxCell id="2uzGwe45xqLhciJeLfCy-80" value="Arrives_At" style="shape=rhombus;perimeter=rhombusPerimeter;whiteSpace=wrap;html=1;align=center;fillColor=#e1d5e7;strokeColor=#9673a6;" vertex="1" parent="1">
          <mxGeometry x="270" y="295" width="120" height="60" as="geometry" />
        </mxCell>
        <mxCell id="2uzGwe45xqLhciJeLfCy-82" style="edgeStyle=orthogonalEdgeStyle;rounded=0;orthogonalLoop=1;jettySize=auto;html=1;entryX=0.1;entryY=0.994;entryDx=0;entryDy=0;entryPerimeter=0;fillColor=#e1d5e7;strokeColor=#9673a6;" edge="1" parent="1" source="2uzGwe45xqLhciJeLfCy-80" target="2uzGwe45xqLhciJeLfCy-1">
          <mxGeometry relative="1" as="geometry">
            <Array as="points">
              <mxPoint x="330" y="270" />
              <mxPoint x="392" y="270" />
            </Array>
          </mxGeometry>
        </mxCell>
        <mxCell id="2uzGwe45xqLhciJeLfCy-83" value="1" style="edgeLabel;html=1;align=center;verticalAlign=middle;resizable=0;points=[];" vertex="1" connectable="0" parent="2uzGwe45xqLhciJeLfCy-82">
          <mxGeometry x="-0.3882" y="2" relative="1" as="geometry">
            <mxPoint as="offset" />
          </mxGeometry>
        </mxCell>
        <mxCell id="2uzGwe45xqLhciJeLfCy-87" style="edgeStyle=orthogonalEdgeStyle;rounded=0;orthogonalLoop=1;jettySize=auto;html=1;fillColor=#d5e8d4;strokeColor=#82b366;shape=link;" edge="1" parent="1" source="2uzGwe45xqLhciJeLfCy-85" target="2uzGwe45xqLhciJeLfCy-7">
          <mxGeometry relative="1" as="geometry" />
        </mxCell>
        <mxCell id="2uzGwe45xqLhciJeLfCy-88" value="1" style="edgeLabel;html=1;align=center;verticalAlign=middle;resizable=0;points=[];" vertex="1" connectable="0" parent="2uzGwe45xqLhciJeLfCy-87">
          <mxGeometry x="-0.3615" relative="1" as="geometry">
            <mxPoint as="offset" />
          </mxGeometry>
        </mxCell>
        <mxCell id="2uzGwe45xqLhciJeLfCy-85" value="Has_Leg" style="shape=rhombus;perimeter=rhombusPerimeter;whiteSpace=wrap;html=1;align=center;fillColor=#d5e8d4;strokeColor=#82b366;" vertex="1" parent="1">
          <mxGeometry x="240" y="620" width="120" height="60" as="geometry" />
        </mxCell>
        <mxCell id="2uzGwe45xqLhciJeLfCy-86" style="edgeStyle=orthogonalEdgeStyle;rounded=0;orthogonalLoop=1;jettySize=auto;html=1;entryX=0.833;entryY=1;entryDx=0;entryDy=0;entryPerimeter=0;fillColor=#d5e8d4;strokeColor=#82b366;shape=link;" edge="1" parent="1" source="2uzGwe45xqLhciJeLfCy-85" target="2uzGwe45xqLhciJeLfCy-4">
          <mxGeometry relative="1" as="geometry">
            <Array as="points">
              <mxPoint x="300" y="380" />
              <mxPoint x="170" y="380" />
            </Array>
          </mxGeometry>
        </mxCell>
        <mxCell id="2uzGwe45xqLhciJeLfCy-89" value="M" style="edgeLabel;html=1;align=center;verticalAlign=middle;resizable=0;points=[];" vertex="1" connectable="0" parent="2uzGwe45xqLhciJeLfCy-86">
          <mxGeometry x="-0.7105" y="1" relative="1" as="geometry">
            <mxPoint as="offset" />
          </mxGeometry>
        </mxCell>
        <mxCell id="2uzGwe45xqLhciJeLfCy-90" value="Has_Instance" style="shape=rhombus;perimeter=rhombusPerimeter;whiteSpace=wrap;html=1;align=center;fillColor=#f5f5f5;fontColor=#333333;strokeColor=#666666;" vertex="1" parent="1">
          <mxGeometry x="80" y="440" width="120" height="60" as="geometry" />
        </mxCell>
        <mxCell id="2uzGwe45xqLhciJeLfCy-91" style="edgeStyle=orthogonalEdgeStyle;rounded=0;orthogonalLoop=1;jettySize=auto;html=1;entryX=0.583;entryY=1;entryDx=0;entryDy=0;entryPerimeter=0;fillColor=#f5f5f5;strokeColor=#666666;shape=link;" edge="1" parent="1" source="2uzGwe45xqLhciJeLfCy-90" target="2uzGwe45xqLhciJeLfCy-4">
          <mxGeometry relative="1" as="geometry" />
        </mxCell>
        <mxCell id="2uzGwe45xqLhciJeLfCy-93" value="1" style="edgeLabel;html=1;align=center;verticalAlign=middle;resizable=0;points=[];" vertex="1" connectable="0" parent="2uzGwe45xqLhciJeLfCy-91">
          <mxGeometry x="-0.5635" relative="1" as="geometry">
            <mxPoint as="offset" />
          </mxGeometry>
        </mxCell>
        <mxCell id="2uzGwe45xqLhciJeLfCy-92" style="edgeStyle=orthogonalEdgeStyle;rounded=0;orthogonalLoop=1;jettySize=auto;html=1;entryX=0.835;entryY=0.059;entryDx=0;entryDy=0;entryPerimeter=0;fillColor=#f5f5f5;strokeColor=#666666;shape=link;" edge="1" parent="1" source="2uzGwe45xqLhciJeLfCy-90" target="2uzGwe45xqLhciJeLfCy-2">
          <mxGeometry relative="1" as="geometry" />
        </mxCell>
        <mxCell id="2uzGwe45xqLhciJeLfCy-94" value="M" style="edgeLabel;html=1;align=center;verticalAlign=middle;resizable=0;points=[];" vertex="1" connectable="0" parent="2uzGwe45xqLhciJeLfCy-92">
          <mxGeometry x="-0.2433" relative="1" as="geometry">
            <mxPoint y="-2" as="offset" />
          </mxGeometry>
        </mxCell>
        <mxCell id="2uzGwe45xqLhciJeLfCy-96" style="edgeStyle=orthogonalEdgeStyle;rounded=0;orthogonalLoop=1;jettySize=auto;html=1;entryX=0;entryY=0.5;entryDx=0;entryDy=0;fillColor=#0050ef;strokeColor=#001DBC;" edge="1" parent="1" source="2uzGwe45xqLhciJeLfCy-95" target="2uzGwe45xqLhciJeLfCy-3">
          <mxGeometry relative="1" as="geometry" />
        </mxCell>
        <mxCell id="2uzGwe45xqLhciJeLfCy-98" value="1" style="edgeLabel;html=1;align=center;verticalAlign=middle;resizable=0;points=[];" vertex="1" connectable="0" parent="2uzGwe45xqLhciJeLfCy-96">
          <mxGeometry x="-0.8565" y="2" relative="1" as="geometry">
            <mxPoint as="offset" />
          </mxGeometry>
        </mxCell>
        <mxCell id="2uzGwe45xqLhciJeLfCy-97" style="edgeStyle=orthogonalEdgeStyle;rounded=0;orthogonalLoop=1;jettySize=auto;html=1;entryX=1;entryY=0.75;entryDx=0;entryDy=0;fillColor=#0050ef;strokeColor=#001DBC;shape=link;" edge="1" parent="1" source="2uzGwe45xqLhciJeLfCy-95" target="2uzGwe45xqLhciJeLfCy-2">
          <mxGeometry relative="1" as="geometry" />
        </mxCell>
        <mxCell id="2uzGwe45xqLhciJeLfCy-99" value="M" style="edgeLabel;html=1;align=center;verticalAlign=middle;resizable=0;points=[];" vertex="1" connectable="0" parent="2uzGwe45xqLhciJeLfCy-97">
          <mxGeometry x="-0.9213" y="-1" relative="1" as="geometry">
            <mxPoint as="offset" />
          </mxGeometry>
        </mxCell>
        <mxCell id="2uzGwe45xqLhciJeLfCy-95" value="Has_Instance" style="shape=rhombus;perimeter=rhombusPerimeter;whiteSpace=wrap;html=1;align=center;fillColor=#0050ef;fontColor=#ffffff;strokeColor=#001DBC;" vertex="1" parent="1">
          <mxGeometry x="510" y="465" width="120" height="60" as="geometry" />
        </mxCell>
        <mxCell id="2uzGwe45xqLhciJeLfCy-100" value="Belongs_To_Type" style="shape=rhombus;perimeter=rhombusPerimeter;whiteSpace=wrap;html=1;align=center;fillColor=#d80073;fontColor=#ffffff;strokeColor=#A50040;" vertex="1" parent="1">
          <mxGeometry x="580" y="355" width="120" height="60" as="geometry" />
        </mxCell>
        <mxCell id="2uzGwe45xqLhciJeLfCy-101" style="edgeStyle=orthogonalEdgeStyle;rounded=0;orthogonalLoop=1;jettySize=auto;html=1;entryX=0.358;entryY=0.059;entryDx=0;entryDy=0;entryPerimeter=0;fillColor=#d80073;strokeColor=#A50040;shape=link;" edge="1" parent="1" source="2uzGwe45xqLhciJeLfCy-100" target="2uzGwe45xqLhciJeLfCy-3">
          <mxGeometry relative="1" as="geometry" />
        </mxCell>
        <mxCell id="2uzGwe45xqLhciJeLfCy-103" value="M" style="edgeLabel;html=1;align=center;verticalAlign=middle;resizable=0;points=[];" vertex="1" connectable="0" parent="2uzGwe45xqLhciJeLfCy-101">
          <mxGeometry x="-0.5459" y="-2" relative="1" as="geometry">
            <mxPoint as="offset" />
          </mxGeometry>
        </mxCell>
        <mxCell id="2uzGwe45xqLhciJeLfCy-102" style="edgeStyle=orthogonalEdgeStyle;rounded=0;orthogonalLoop=1;jettySize=auto;html=1;entryX=0.441;entryY=1.046;entryDx=0;entryDy=0;entryPerimeter=0;fillColor=#d80073;strokeColor=#A50040;" edge="1" parent="1" source="2uzGwe45xqLhciJeLfCy-100" target="2uzGwe45xqLhciJeLfCy-6">
          <mxGeometry relative="1" as="geometry" />
        </mxCell>
        <mxCell id="2uzGwe45xqLhciJeLfCy-104" value="1" style="edgeLabel;html=1;align=center;verticalAlign=middle;resizable=0;points=[];" vertex="1" connectable="0" parent="2uzGwe45xqLhciJeLfCy-102">
          <mxGeometry x="-0.8194" y="4" relative="1" as="geometry">
            <mxPoint as="offset" />
          </mxGeometry>
        </mxCell>
        <mxCell id="2uzGwe45xqLhciJeLfCy-106" style="edgeStyle=orthogonalEdgeStyle;rounded=0;orthogonalLoop=1;jettySize=auto;html=1;fillColor=#a20025;strokeColor=#6F0000;shape=link;" edge="1" parent="1" source="2uzGwe45xqLhciJeLfCy-105">
          <mxGeometry relative="1" as="geometry">
            <mxPoint x="760" y="720" as="targetPoint" />
          </mxGeometry>
        </mxCell>
        <mxCell id="2uzGwe45xqLhciJeLfCy-108" value="M" style="edgeLabel;html=1;align=center;verticalAlign=middle;resizable=0;points=[];" vertex="1" connectable="0" parent="2uzGwe45xqLhciJeLfCy-106">
          <mxGeometry x="-0.7055" y="1" relative="1" as="geometry">
            <mxPoint as="offset" />
          </mxGeometry>
        </mxCell>
        <mxCell id="2uzGwe45xqLhciJeLfCy-105" value="Has_Reservation" style="shape=rhombus;perimeter=rhombusPerimeter;whiteSpace=wrap;html=1;align=center;fillColor=#a20025;fontColor=#ffffff;strokeColor=#6F0000;" vertex="1" parent="1">
          <mxGeometry x="580" y="640" width="120" height="60" as="geometry" />
        </mxCell>
        <mxCell id="2uzGwe45xqLhciJeLfCy-107" style="edgeStyle=orthogonalEdgeStyle;rounded=0;orthogonalLoop=1;jettySize=auto;html=1;entryX=0.85;entryY=1.059;entryDx=0;entryDy=0;entryPerimeter=0;fillColor=#a20025;strokeColor=#6F0000;shape=link;" edge="1" parent="1" source="2uzGwe45xqLhciJeLfCy-105" target="2uzGwe45xqLhciJeLfCy-2">
          <mxGeometry relative="1" as="geometry">
            <Array as="points">
              <mxPoint x="142" y="690" />
            </Array>
          </mxGeometry>
        </mxCell>
        <mxCell id="2uzGwe45xqLhciJeLfCy-109" value="1" style="edgeLabel;html=1;align=center;verticalAlign=middle;resizable=0;points=[];" vertex="1" connectable="0" parent="2uzGwe45xqLhciJeLfCy-107">
          <mxGeometry x="-0.8429" y="-2" relative="1" as="geometry">
            <mxPoint as="offset" />
          </mxGeometry>
        </mxCell>
        <mxCell id="2uzGwe45xqLhciJeLfCy-112" value="FARE" style="whiteSpace=wrap;html=1;" vertex="1" parent="1">
          <mxGeometry x="-120" y="880" width="120" height="70" as="geometry" />
        </mxCell>
        <mxCell id="2uzGwe45xqLhciJeLfCy-114" style="edgeStyle=orthogonalEdgeStyle;rounded=0;orthogonalLoop=1;jettySize=auto;html=1;entryX=0.583;entryY=1;entryDx=0;entryDy=0;entryPerimeter=0;" edge="1" parent="1" source="2uzGwe45xqLhciJeLfCy-69" target="2uzGwe45xqLhciJeLfCy-112">
          <mxGeometry relative="1" as="geometry" />
        </mxCell>
        <mxCell id="2uzGwe45xqLhciJeLfCy-116" style="edgeStyle=orthogonalEdgeStyle;rounded=0;orthogonalLoop=1;jettySize=auto;html=1;fillColor=#1ba1e2;strokeColor=#006EAF;shape=link;" edge="1" parent="1" source="2uzGwe45xqLhciJeLfCy-115" target="2uzGwe45xqLhciJeLfCy-7">
          <mxGeometry relative="1" as="geometry" />
        </mxCell>
        <mxCell id="2uzGwe45xqLhciJeLfCy-118" value="1" style="edgeLabel;html=1;align=center;verticalAlign=middle;resizable=0;points=[];" vertex="1" connectable="0" parent="2uzGwe45xqLhciJeLfCy-116">
          <mxGeometry x="-0.3365" y="-3" relative="1" as="geometry">
            <mxPoint as="offset" />
          </mxGeometry>
        </mxCell>
        <mxCell id="2uzGwe45xqLhciJeLfCy-115" value="Offers" style="shape=rhombus;perimeter=rhombusPerimeter;whiteSpace=wrap;html=1;align=center;fillColor=#1ba1e2;fontColor=#ffffff;strokeColor=#006EAF;" vertex="1" parent="1">
          <mxGeometry x="60" y="800" width="120" height="60" as="geometry" />
        </mxCell>
        <mxCell id="2uzGwe45xqLhciJeLfCy-117" style="edgeStyle=orthogonalEdgeStyle;rounded=0;orthogonalLoop=1;jettySize=auto;html=1;entryX=0.403;entryY=0.059;entryDx=0;entryDy=0;entryPerimeter=0;fillColor=#1ba1e2;strokeColor=#006EAF;" edge="1" parent="1" source="2uzGwe45xqLhciJeLfCy-115" target="2uzGwe45xqLhciJeLfCy-112">
          <mxGeometry relative="1" as="geometry">
            <Array as="points">
              <mxPoint x="-72" y="860" />
            </Array>
          </mxGeometry>
        </mxCell>
        <mxCell id="2uzGwe45xqLhciJeLfCy-119" value="M" style="edgeLabel;html=1;align=center;verticalAlign=middle;resizable=0;points=[];" vertex="1" connectable="0" parent="2uzGwe45xqLhciJeLfCy-117">
          <mxGeometry x="-0.2121" y="1" relative="1" as="geometry">
            <mxPoint as="offset" />
          </mxGeometry>
        </mxCell>
      </root>
    </mxGraphModel>
  </diagram>
</mxfile>
